<svg width="82" height="81" viewBox="0 0 82 81" fill="none" xmlns="http://www.w3.org/2000/svg">
<rect x="11" y="10" width="60" height="60" rx="8" fill="#FFF1E9"/>
<path d="M67.3465 14.9827C67.019 22.4334 66.9995 23.1215 66.0773 31.3648C65.1551 39.608 62.8179 47.8593 55.7789 54.5613C48.7399 61.2633 43.4517 62.8261 35.5271 64.4696C27.6025 66.1132 22.3918 66.263 14.2653 65.5225L40.8059 40.2526L67.3465 14.9827Z" fill="#FF983B"/>
<path d="M67.3465 14.9827C59.8887 14.9445 59.2004 14.9303 50.9219 15.4472C42.6434 15.9642 34.2874 17.8941 27.2484 24.5961C20.2094 31.2981 18.3892 36.5033 16.3592 44.3378C14.3291 52.1723 13.924 57.3694 14.2653 65.5225L40.8059 40.2526L67.3465 14.9827Z" fill="#FF983B"/>
<path fill-rule="evenodd" clip-rule="evenodd" d="M35.9192 29.2671H41.1319V26.5415C41.1319 25.6927 41.8284 25 42.6818 25H44.3181C45.1715 25 45.868 25.6927 45.868 26.5415V29.2671H51.0807V26.5415C51.0807 25.6927 51.7772 25 52.6305 25H54.2669C55.1202 25 55.8167 25.6927 55.8167 26.5415V29.2671H57.6261C59.4839 29.2671 61 30.7765 61 32.6227V56.6429C61 58.4906 59.4824 59.9985 57.6261 59.9985L29.3739 60C27.5161 60 26 58.4906 26 56.6444V32.6242C26 30.7765 27.5176 29.2685 29.3739 29.2685H31.1833V26.5415C31.1833 25.6927 31.8798 25 32.7331 25H34.3695C35.2228 25 35.9193 25.6927 35.9193 26.5415L35.9192 29.2671ZM40.975 47.2102C40.6217 47.2102 40.3343 47.496 40.3343 47.8475V52.8684C40.3343 53.2199 40.6217 53.5057 40.975 53.5057H46.0233C46.3767 53.5057 46.6641 53.2199 46.6641 52.8684V47.8475C46.6641 47.496 46.3767 47.2102 46.0233 47.2102H40.975ZM45.3841 48.4848H41.6158V52.2327H45.3841V48.4848ZM32.0455 47.2102C31.6921 47.2102 31.4047 47.496 31.4047 47.8475V52.8684C31.4047 53.2199 31.6921 53.5057 32.0455 53.5057H37.0938C37.4471 53.5057 37.7345 53.2199 37.7345 52.8684V47.8475C37.7345 47.496 37.4471 47.2102 37.0938 47.2102H32.0455ZM36.4545 48.4848H32.6862V52.2327H36.4545V48.4848ZM49.9046 39.9026C49.5512 39.9026 49.2638 40.1884 49.2638 40.5399V45.5608C49.2638 45.9123 49.5512 46.1981 49.9046 46.1981H54.9529C55.3062 46.1981 55.5936 45.9123 55.5936 45.5608V40.5399C55.5936 40.1884 55.3062 39.9026 54.9529 39.9026H49.9046ZM54.3136 41.1772H50.5453V44.9251H54.3136V41.1772ZM40.975 39.9026C40.6217 39.9026 40.3343 40.1884 40.3343 40.5399V45.5608C40.3343 45.9123 40.6217 46.1981 40.975 46.1981H46.0233C46.3767 46.1981 46.6641 45.9123 46.6641 45.5608V40.5399C46.6641 40.1884 46.3767 39.9026 46.0233 39.9026H40.975ZM45.3841 41.1772H41.6158V44.9251H45.3841V41.1772ZM32.0455 39.9026C31.6921 39.9026 31.4047 40.1884 31.4047 40.5399V45.5608C31.4047 45.9123 31.6921 46.1981 32.0455 46.1981H37.0938C37.4471 46.1981 37.7345 45.9123 37.7345 45.5608V40.5399C37.7345 40.1884 37.4471 39.9026 37.0938 39.9026H32.0455ZM36.4545 41.1772H32.6862V44.9251H36.4545V41.1772ZM54.2111 56.09C54.0938 56.2285 53.9179 56.316 53.7214 56.316H29.3741C28.5867 56.316 27.8565 56.0769 27.2803 55.6802V56.6427C27.2803 57.786 28.2231 58.7252 29.3741 58.7252H57.6263C58.7759 58.7252 59.7202 57.7875 59.7202 56.6427V50.4827L54.2111 56.09ZM53.0807 55.0429V51.2132C53.0807 49.5041 54.7185 48.2864 56.4546 48.2864H59.7185L59.7199 37.944H27.2801V53.3906C27.2801 54.3808 28.3359 55.0429 29.374 55.0429H53.0807ZM58.8403 49.5609H56.4546C55.4165 49.5609 54.3608 50.2229 54.3608 51.2132V54.1196L58.8403 49.5609ZM31.1834 30.5414H29.374C28.2244 30.5414 27.2802 31.4791 27.2802 32.6239V36.6694H59.7185V32.6239C59.7185 31.4806 58.7757 30.5414 57.6246 30.5414H55.8153V33.2671C55.8153 34.1158 55.1188 34.8085 54.2654 34.8085H52.6291C51.7757 34.8085 51.0792 34.1158 51.0792 33.2671L51.0807 30.5414H45.868V33.2671C45.868 34.1158 45.1715 34.8085 44.3181 34.8085H42.6818C41.8284 34.8085 41.1319 34.1158 41.1319 33.2671V30.5414H35.9192V33.2671C35.9192 34.1158 35.2228 34.8085 34.3694 34.8085H32.733C31.8797 34.8085 31.1832 34.1158 31.1832 33.2671L31.1834 30.5414ZM34.6379 33.2671V26.5411C34.6379 26.3953 34.5162 26.2742 34.3696 26.2742H32.7332C32.5866 26.2742 32.4649 26.3953 32.4649 26.5411V33.2671C32.4649 33.4129 32.5866 33.5339 32.7332 33.5339H34.3696C34.5162 33.5354 34.6379 33.4129 34.6379 33.2671ZM44.5881 33.2671V26.5411C44.5881 26.3953 44.4664 26.2742 44.3197 26.2742H42.6834C42.5368 26.2742 42.4151 26.3953 42.4151 26.5411V33.2671C42.4151 33.4129 42.5368 33.5339 42.6834 33.5339H44.3197C44.4649 33.5354 44.5881 33.4129 44.5881 33.2671ZM54.5367 33.2671V26.5411C54.5367 26.3953 54.415 26.2742 54.2684 26.2742H52.632C52.4854 26.2742 52.3637 26.3953 52.3637 26.5411V33.2671C52.3637 33.4129 52.4854 33.5339 52.632 33.5339H54.2684C54.4136 33.5354 54.5367 33.4129 54.5367 33.2671Z" fill="#F9E0CA"/>
</svg>
