<svg width="82" height="81" viewBox="0 0 82 81" fill="none" xmlns="http://www.w3.org/2000/svg">
<rect x="11" y="10" width="60" height="60" rx="8" fill="#FFF1E9"/>
<path d="M67.3466 14.9827C67.0191 22.4334 66.9996 23.1215 66.0774 31.3648C65.1552 39.608 62.818 47.8593 55.779 54.5613C48.74 61.2633 43.4518 62.8261 35.5272 64.4696C27.6026 66.1132 22.3919 66.263 14.2654 65.5225L40.806 40.2526L67.3466 14.9827Z" fill="#F56D65"/>
<path d="M67.3466 14.9827C59.8888 14.9445 59.2005 14.9303 50.922 15.4472C42.6435 15.9642 34.2875 17.8941 27.2485 24.5961C20.2095 31.2981 18.3893 36.5033 16.3593 44.3378C14.3292 52.1723 13.9241 57.3694 14.2654 65.5225L40.806 40.2526L67.3466 14.9827Z" fill="#F56D65"/>
<path d="M43.9693 41.6845L43.9739 41.6868C43.9762 41.6868 43.9808 41.6845 43.9831 41.6845H43.9899L43.9922 41.6868H43.9945C45.153 41.6868 46.0917 42.6308 46.0917 43.7928C46.0917 44.9572 45.1507 45.901 43.9899 45.901C42.8292 45.901 41.8882 44.9571 41.8882 43.7928C41.8882 42.6353 42.8177 41.696 43.9693 41.6845ZM43.9899 39.7898V39.7921C43.9876 39.7898 43.9831 39.7898 43.9808 39.7898C43.9762 39.7898 43.9739 39.7898 43.9693 39.7921H43.967C41.7737 39.8036 39.9994 41.5904 39.9994 43.7928C39.9994 46.0044 41.7875 47.7957 43.99 47.7957C46.1947 47.7957 47.9805 46.0044 47.9805 43.7928C47.9805 41.5835 46.1947 39.7898 43.9899 39.7898ZM53.0265 46.0942V46.0965C53.0242 46.0942 53.0197 46.0942 53.0174 46.0942C53.0082 46.0942 53.0013 46.0965 52.9922 46.0965H52.9899C52.4267 46.1033 51.868 46.3238 51.4399 46.7533L45.6292 52.582L44.3974 51.3442C43.9579 50.9055 43.3832 50.685 42.8086 50.685C42.7948 50.685 42.7834 50.6873 42.7697 50.6873L42.7674 50.6896C42.2064 50.6965 41.6478 50.9147 41.2197 51.3442L36.3088 56.2703C35.9402 56.6401 35.9402 57.2395 36.3088 57.6115C36.4919 57.7952 36.7346 57.8871 36.975 57.8871C37.2177 57.8871 37.4604 57.7952 37.6435 57.6115L42.5681 52.6739C42.6368 52.6119 42.7215 52.5797 42.8085 52.5797C42.9001 52.5797 42.9917 52.6142 43.0627 52.6854L44.2944 53.9209L43.2001 55.0164C42.8314 55.3862 42.8314 55.9856 43.2001 56.3553V56.3576C43.3855 56.5413 43.6282 56.6332 43.8686 56.6332C44.1089 56.6332 44.3517 56.5413 44.5348 56.3576L52.786 48.0831C52.8547 48.0211 52.9417 47.989 53.0264 47.989C53.1203 47.989 53.2096 48.0234 53.2805 48.0946L59.0569 53.8889V53.8912C59.2424 54.0749 59.485 54.1668 59.7254 54.1668C59.9658 54.1668 60.2085 54.0749 60.3939 53.8889V53.8912C60.7625 53.5192 60.7625 52.9198 60.3939 52.55L54.6153 46.7535C54.178 46.3148 53.6011 46.0942 53.0265 46.0942ZM51.0416 25V25.0023H51.0324C50.8355 25.0023 50.6363 25.0276 50.4349 25.0804L24.7399 31.9861C24.7331 31.9884 24.7262 31.9907 24.7193 31.993L24.7171 31.9953C23.4784 32.3398 22.7481 33.6236 23.0801 34.8706L28.8106 56.3252C29.0922 57.3771 30.0424 58.0706 31.0772 58.0706C31.1505 58.0706 31.2237 58.0683 31.297 58.0614H31.3016V56.1048L31.1779 56.1369C31.1459 56.1438 31.1138 56.1484 31.0818 56.1484C30.8895 56.1484 30.7155 56.0198 30.6628 55.8269L24.9323 34.3747C24.8727 34.1496 25.0009 33.9177 25.223 33.8488H25.2253L50.9478 26.9359H50.9523C50.9821 26.929 51.0142 26.9245 51.0439 26.9245C51.234 26.9245 51.4057 27.0531 51.4583 27.2437L53.1754 33.6721V33.6743L55.1604 33.6721L53.3105 26.7457C53.0289 25.6939 52.0787 25 51.0416 25ZM35.0356 37.0019L35.0379 37.0042H61.6694L61.6717 37.0065C61.9006 37.0134 62.0815 37.204 62.0815 37.4337V59.6437C62.0815 59.878 61.896 60.0663 61.6648 60.0755H61.6625L35.0357 60.0778C34.8044 60.0686 34.6213 59.878 34.6213 59.6437V37.4337C34.6213 37.2017 34.8043 37.0111 35.0356 37.0019ZM35.0493 35.0797H35.0401H35.0287H35.0264C33.7397 35.0935 32.7026 36.143 32.7026 37.4337V59.6437C32.7026 60.9436 33.7535 61.9977 35.0493 62H61.6533C62.9491 61.9977 63.9977 60.9436 64 59.6437V37.4337C63.9977 36.1338 62.9491 35.0797 61.6533 35.0797H35.0493Z" fill="#FED2CF"/>
</svg>
