<svg width="82" height="81" viewBox="0 0 82 81" fill="none" xmlns="http://www.w3.org/2000/svg">
<rect x="11" y="10" width="60" height="60" rx="8" fill="#FFF1E9"/>
<path d="M67.3465 14.9827C67.019 22.4334 66.9995 23.1215 66.0773 31.3648C65.1551 39.608 62.8179 47.8593 55.7789 54.5613C48.7399 61.2633 43.4517 62.8261 35.5271 64.4696C27.6025 66.1132 22.3918 66.263 14.2653 65.5225L40.8059 40.2526L67.3465 14.9827Z" fill="#109A58"/>
<path d="M67.3465 14.9827C59.8887 14.9445 59.2004 14.9303 50.9219 15.4472C42.6434 15.9642 34.2874 17.8941 27.2484 24.5961C20.2094 31.2981 18.3892 36.5033 16.3592 44.3378C14.3291 52.1723 13.924 57.3694 14.2653 65.5225L40.8059 40.2526L67.3465 14.9827Z" fill="#109A58"/>
<path d="M28.4665 33.933H59.4453C60.2542 33.933 60.9118 33.2769 60.9118 32.4665C60.9118 31.6576 60.2542 31 59.4453 31H28.4665C27.656 31 27 31.6576 27 32.4665C27 33.2769 27.6561 33.933 28.4665 33.933Z" fill="#6AC79A"/>
<path d="M28.4665 42.5006H39.2985C40.1089 42.5006 40.765 41.843 40.765 41.0341C40.765 40.2237 40.1089 39.5676 39.2985 39.5676H28.4665C27.656 39.5676 27 40.2237 27 41.0341C27 41.843 27.6561 42.5006 28.4665 42.5006Z" fill="#6AC79A"/>
<path d="M28.4665 51.0651H35.6707C36.4811 51.0651 37.1372 50.409 37.1372 49.5986C37.1372 48.7881 36.4811 48.1321 35.6707 48.1321H28.4665C27.656 48.1321 27 48.7882 27 49.5986C27 50.409 27.6561 51.0651 28.4665 51.0651Z" fill="#6AC79A"/>
<path d="M28.4665 59.6307H39.2985C40.1089 59.6307 40.765 58.9746 40.765 58.1642C40.765 57.3538 40.1089 56.6978 39.2985 56.6978H28.4665C27.656 56.6978 27 57.3538 27 58.1642C27 58.9746 27.6561 59.6307 28.4665 59.6307Z" fill="#6AC79A"/>
<path d="M65.7959 63.4981C66.5955 62.6181 66.7499 61.2937 66.1602 60.3458L66.1093 60.2779C65.0549 59.0569 63.7598 58.163 62.5063 57.2986C62.037 56.9744 60.6647 55.9201 59.8728 55.3088L59.8743 55.3072C60.9518 53.6493 61.5245 51.7135 61.523 49.7343C61.523 44.0753 56.9199 39.4734 51.262 39.4734C45.603 39.4734 41.0011 44.0765 41.0011 49.7391C41.0011 55.4017 45.6042 60.0048 51.2668 60.0048H51.2652C53.2412 60.0063 55.1738 59.4351 56.8302 58.3607C57.4415 59.1511 58.4974 60.5219 58.82 60.9927C59.686 62.2462 60.5814 63.5398 61.8025 64.5926L61.8704 64.6435H61.8719C62.2609 64.8797 62.7086 65.0032 63.164 65.0001C63.8525 64.997 64.5163 64.7408 65.0272 64.2777L65.7805 63.5244L65.7959 63.4981ZM51.2607 57.0625C49.3172 57.0625 47.454 56.2907 46.0787 54.9168C44.7048 53.5413 43.9329 51.6781 43.9329 49.7347C43.9314 47.7897 44.7048 45.9265 46.0787 44.5527C47.4526 43.1772 49.3173 42.4054 51.2607 42.4054C53.2041 42.4054 55.069 43.1772 56.4427 44.5527C57.8182 45.9266 58.59 47.7913 58.59 49.7347C58.5885 51.6782 57.8151 53.5414 56.4412 54.9152C55.0673 56.2891 53.2041 57.061 51.2607 57.0625Z" fill="#6AC79A"/>
</svg>
