<svg width="25" height="24" viewBox="0 0 25 24" fill="none" xmlns="http://www.w3.org/2000/svg">
<path d="M4.29732 0L3.04018 1.26891L4.91071 3.15873L6.16607 1.88982L4.29732 0ZM20.7036 0L18.833 1.88982L20.0893 3.15873L21.9589 1.26981L20.7036 0ZM12.5 0.563156C12.2054 0.566766 11.9071 0.583913 11.6071 0.620915C11.5982 0.620915 11.5893 0.61911 11.5804 0.620915C7.95893 1.04057 5.07679 3.99804 4.57589 7.64231C4.17589 10.5754 5.37232 13.2351 7.36607 14.948C8.18161 15.6515 8.73324 16.6169 8.92857 17.6825V23.0975H10.9643C11.275 23.6363 11.842 24 12.5 24C13.158 24 13.725 23.6363 14.0357 23.0975H16.0714V19.4875H16.1554V18.4154C16.1554 17.0923 16.8357 15.7584 17.9411 14.7215C19.4196 13.2251 20.5357 11.0998 20.5357 8.65852C20.5357 4.2002 16.9054 0.521641 12.5 0.563156ZM12.5 2.36814C15.9509 2.31941 18.75 5.1749 18.75 8.65852C18.75 10.5483 17.8839 12.2125 16.6848 13.4237L16.7134 13.4526C15.5218 14.5633 14.7512 16.0597 14.5348 17.6835H10.6295C10.433 16.1366 9.77679 14.6393 8.53661 13.5654C6.95893 12.2116 6.01875 10.172 6.33304 7.86884C6.72321 5.02598 9.00536 2.73997 11.8018 2.4268C12.0327 2.39427 12.2652 2.37498 12.4982 2.36904L12.5 2.36814ZM0 8.65852V10.4635H2.67857V8.65852H0ZM22.3214 8.65852V10.4635H25V8.65852H22.3214ZM4.91071 15.9633L3.04107 17.8522L4.29732 19.122L6.16518 17.2322L4.91071 15.9633ZM20.0893 15.9633L18.8339 17.2322L20.7027 19.122L21.9589 17.8522L20.0893 15.9633ZM10.7143 19.4884H14.2857V21.2934H10.7143V19.4884Z" fill="#556680"/>
</svg>
