<svg width="22" height="22" viewBox="0 0 22 22" fill="none" xmlns="http://www.w3.org/2000/svg">
<path d="M22 4.88889V19.5556C22 20.2278 21.7609 20.8034 21.2826 21.2826C20.8043 21.7617 20.2286 22.0008 19.5556 22H2.44444C1.77222 22 1.19696 21.7608 0.718667 21.2826C0.24037 20.8043 0.000814815 20.2286 0 19.5556V2.44444C0 1.77222 0.239556 1.19696 0.718667 0.718667C1.19778 0.24037 1.77304 0.000814815 2.44444 0H17.1111L22 4.88889ZM11 18.3333C12.0185 18.3333 12.8843 17.9768 13.5972 17.2639C14.3102 16.5509 14.6667 15.6852 14.6667 14.6667C14.6667 13.6481 14.3102 12.7824 13.5972 12.0694C12.8843 11.3565 12.0185 11 11 11C9.98148 11 9.11574 11.3565 8.40278 12.0694C7.68981 12.7824 7.33333 13.6481 7.33333 14.6667C7.33333 15.6852 7.68981 16.5509 8.40278 17.2639C9.11574 17.9768 9.98148 18.3333 11 18.3333ZM3.66667 8.55555H14.6667V3.66667H3.66667V8.55555Z" fill="white"/>
</svg>
